<?xml version="1.0" encoding="UTF-8"?>
<svg width="432px" height="524px" viewBox="0 0 432 524" version="1.1" xmlns="http://www.w3.org/2000/svg" xmlns:xlink="http://www.w3.org/1999/xlink">
    <!-- Generator: Sketch 62 (91390) - https://sketch.com -->
    <title>sb-hologram</title>
    <desc>Created with Sketch.</desc>
    <g id="Page-1" stroke="none" stroke-width="1" fill="none" fill-rule="evenodd">
        <g id="Artboard" transform="translate(-4059.000000, -407.000000)">
            <g id="sb-hologram" transform="translate(4070.000000, 419.000000)">
                <rect id="Rectangle" fill="#FFFFFF" opacity="0.693940662" x="58" y="62" width="286" height="294"/>
                <g id="Group-10">
                    <path d="M390.689298,413.865497 L146.353925,413.865497 L70.1208285,496.329231 L70.1208285,413.396686 L21.6582278,413.396686 C14.2746871,413.396686 7.58297294,410.918136 2.79237696,406.678205 C-1.99164565,402.444092 -5,396.458113 -5,389.11306 L-5,20.6276803 C-5,13.3183419 -1.95444996,6.6098258 3.02330966,1.74988014 C7.9049607,-3.01623162 14.641579,-6 22.1353748,-5.99999513 L390.219793,-5.53118908 C397.782863,-5.53118908 403.841431,-2.5463068 408.115217,2.14790586 C412.486619,6.94933755 415,13.6718833 415,21.0964912 L415,389.11306 C415,396.797954 412.506089,402.833351 408.399883,407.038616 C404.215032,411.324424 398.217983,413.865497 390.689298,413.865497 Z" id="Shape-path" stroke="#FFFFFF" stroke-width="12" fill="#FFFFFF" opacity="0.0294596354"/>
                    <g id="icon" fill="#09B3AF" fill-rule="nonzero">
                        <path d="M243.284344,230 L146,230 L146,277 L240.945779,277 C246.558337,277 251.703182,274.65 255.912601,270.89 C259.654306,267.13 261.992872,261.49 261.992872,254.44 C262.128525,248.391433 260.324774,242.459382 256.848027,237.52 C253.106322,232.82 248.896903,230 243.284344,230 Z M245.95614,170.255556 C250.140351,167.122222 252,160.333333 252,151.455556 C252,143.622222 250.140351,137.877778 246.885965,134.222222 C243.631579,131.088889 239.447368,129 234.798246,129 L146,129 L146,176 L232.938596,176 C237.587719,176 242.236842,173.388889 245.95614,170.255556 Z" id="Shape"/>
                        <path d="M390.174735,0 L21.6131699,0 C9.87554046,0 0.485436893,9.37621832 0.485436893,20.6276803 L0.485436893,389.11306 C0.485436893,400.364522 9.87554046,407.396686 21.1436647,407.396686 L75.6062654,407.396686 L75.6062654,481 L143.215011,407.865497 L390.174735,407.865497 C401.442859,407.865497 408.485437,400.833333 408.485437,389.11306 L408.485437,21.0964912 C408.485437,9.84502924 401.442859,0.468810916 389.70523,0.468810916 L390.174735,0 Z M328.200051,298.632554 C323.505,307.07115 316.462422,314.103314 308.011329,319.260234 C299.09073,324.885965 289.231122,330.042885 277.962997,332.38694 C266.694873,335.199805 254.487738,337.54386 241.811099,337.54386 L75.6062654,337.54386 L75.6062654,75.0097466 L264.347347,75.0097466 C273.737451,75.0097466 281.719039,76.8849903 289.231122,81.1042885 C296.273699,84.8547758 302.846772,90.0116959 308.011329,96.1062378 C318.529857,108.914188 324.183029,125.018508 323.974505,141.580897 C323.974505,153.769981 320.687969,165.490253 314.584401,176.741715 C308.256535,188.058866 298.349633,196.961893 286.414091,202.057505 C301.438256,206.276803 313.175886,213.777778 322.096484,224.560429 C330.547577,235.811891 334.773124,250.345029 334.773124,268.628655 C334.773124,280.348928 332.425598,290.193957 327.730546,298.632554 L328.200051,298.632554 Z" id="Shape"/>
                    </g>
                </g>
            </g>
        </g>
    </g>
</svg>