<?xml version="1.0" encoding="UTF-8"?><svg xmlns="http://www.w3.org/2000/svg" xmlns:xlink="http://www.w3.org/1999/xlink" viewBox="0 0 103.49 103.49"><defs><style>.h{fill:url(#e);}.i{fill:url(#d);}.j{fill:url(#g);}.k{fill:url(#f);}.l{fill:url(#c);}</style><linearGradient id="c" x1="91.45" y1="5.86" x2="-8.21" y2="80.92" gradientTransform="matrix(1, 0, 0, 1, 0, 0)" gradientUnits="userSpaceOnUse"><stop offset="0" stop-color="#08f7a1"/><stop offset="1" stop-color="#007368"/></linearGradient><linearGradient id="d" x1="114.42" y1="36.37" x2="14.77" y2="111.42" xlink:href="#c"/><linearGradient id="e" x1="106.82" y1="26.27" x2="7.16" y2="101.32" xlink:href="#c"/><linearGradient id="f" x1="82.26" y1="-6.34" x2="-17.4" y2="68.71" xlink:href="#c"/><linearGradient id="g" x1="100.15" y1="17.42" x2=".5" y2="92.48" xlink:href="#c"/></defs><g id="a"/><g id="b"><g><path d="M47.14,70.97c-.15-.54-.35-1.06-.54-1.59-4.23,3.68-9.73,5.9-15.64,5.9-.07,0-.12-.02-.2-.02-1.38-.02-2.75-.16-4.08-.39-11.11-2.02-19.58-11.77-19.58-23.45,0-8.22,4.31-15.71,10.94-20.02,0-.14-.02-.3-.02-.44,0-2.79,.37-5.49,1.01-8.09C7.74,27.62,0,38.88,0,51.43s7.44,23.22,18.09,28.12c.59,.27,1.17,.51,1.78,.75,.6,.23,1.19,.46,1.79,.66,2.54,.8,5.24,1.26,8.02,1.37,.43,.02,.83,.07,1.28,.07,.14,0,.3-.02,.46-.04,.57,0,1.14-.04,1.7-.07,6.84-.48,13.17-3.22,18.14-7.54-1.98-.33-3.59-1.76-4.13-3.77Z" style="fill:url(#c);"/><path d="M75.27,72.55v.18c-.02,1.4-.16,2.75-.41,4.1-2.02,11.11-11.75,19.56-23.43,19.56-8.22,0-15.71-4.3-20.02-10.94-.16,.02-.3,.04-.44,.04-2.8,0-5.5-.39-8.09-1.01,4.76,11.27,16.01,19.01,28.56,19.01s23.2-7.42,28.1-18.07c.27-.59,.53-1.19,.76-1.79,.21-.59,.46-1.17,.64-1.79,.82-2.54,1.26-5.24,1.38-8.02,.02-.43,.05-.83,.05-1.26,0-.16-.02-.32-.02-.48,0-.57-.04-1.14-.07-1.69-.76-10.68-7.03-20.1-16.18-25.06l-2.36,6.8c6.97,4.23,11.53,11.91,11.53,20.43Z" style="fill:url(#d);"/><path d="M85.4,23.97c-.59-.27-1.17-.51-1.79-.76-.59-.21-1.17-.46-1.78-.64-2.56-.82-5.25-1.26-8.02-1.37-.43-.02-.85-.07-1.28-.07-.16,0-.3,.02-.46,.02-.57,.02-1.14,.04-1.7,.07-12.57,.9-23.41,9.44-27.27,21.34l9.3-3.23c4.28-6.73,11.81-11.1,20.14-11.1h.18c1.4,.02,2.77,.16,4.1,.41,11.11,2.02,19.58,11.75,19.58,23.45,0,8.2-4.31,15.69-10.94,20.01,0,.16,.02,.3,.02,.46,0,2.79-.37,5.49-1.01,8.08,11.29-4.74,19.03-16.01,19.03-28.55s-7.44-23.22-18.09-28.12Z" style="fill:url(#e);"/><path d="M32.13,46.37l1.38-.48c-3.32-4.13-5.28-9.35-5.28-14.93v-.18c.02-1.4,.16-2.77,.39-4.1,2.02-11.11,11.77-19.58,23.45-19.58,8.22,0,15.71,4.31,20.02,10.94,.14,0,.3-.02,.44-.02,2.79,0,5.49,.37,8.09,1.01C75.87,7.74,64.62,0,52.07,0S28.85,7.44,23.97,18.09c-.28,.59-.53,1.17-.76,1.79-.23,.59-.46,1.17-.66,1.78-.8,2.56-1.24,5.25-1.37,8.04-.02,.41-.05,.83-.05,1.26,0,.16,.02,.3,.02,.46,0,.57,.04,1.14,.07,1.7,.48,6.78,3.19,13.05,7.43,18,.06-2.15,1.42-4.04,3.48-4.76Z" style="fill:url(#f);"/><path d="M43.96,59.5c3.08,3.06,5.15,6.75,6.21,10.66,.54,1.99,3.33,2.07,4,.12l9.68-28.08c.57-1.66-1.02-3.25-2.68-2.67l-28.04,9.81c-1.95,.68-1.85,3.46,.14,4,3.91,1.05,7.61,3.1,10.69,6.16Z" style="fill:url(#g);"/></g></g></svg>